<svg xmlns="http://www.w3.org/2000/svg" width="388.577" height="169.471" viewBox="0 0 388.577 169.471"><defs><style>.a{fill:#e27866;}.b{fill:#fff;}</style></defs><g transform="translate(0 0)"><g transform="translate(6.196 149.527)"><path class="a" d="M12.8,82.317h2.095V97.273H12.8V90.368H5.485v6.905H3.39V82.317H5.485v6.236H12.8Z" transform="translate(-3.39 -81.39)"/><path class="a" d="M11.39,97.677a3.632,3.632,0,0,0,.618.2,2.838,2.838,0,0,0,.744.1,2.923,2.923,0,0,0,1.857-.53,4.553,4.553,0,0,0,1.21-1.714q-1.363-2.591-2.537-5.492a48.1,48.1,0,0,1-1.954-5.882h2.159q.239.97.572,2.095t.744,2.308q.411,1.187.885,2.376c.316.791.649,1.554.992,2.286q.82-2.267,1.426-4.491t1.142-4.573h2.073q-.776,3.172-1.727,6.1T17.543,95.93a11.552,11.552,0,0,1-.9,1.674,5,5,0,0,1-1.027,1.153,3.692,3.692,0,0,1-1.261.669,5.374,5.374,0,0,1-1.588.218,3.919,3.919,0,0,1-.5-.033c-.172-.022-.342-.051-.5-.086s-.316-.077-.457-.121a1.861,1.861,0,0,1-.291-.106Z" transform="translate(2.928 -79.699)"/><path class="a" d="M25.311,94.568a5.5,5.5,0,0,1-1,.442,5.08,5.08,0,0,1-1.74.271,5.616,5.616,0,0,1-1.908-.323,4.157,4.157,0,0,1-1.566-1.005,4.849,4.849,0,0,1-1.056-1.693,6.748,6.748,0,0,1-.389-2.418,6.639,6.639,0,0,1,.367-2.254,5.042,5.042,0,0,1,1.067-1.771A4.918,4.918,0,0,1,20.8,84.651a5.928,5.928,0,0,1,2.286-.419,13.007,13.007,0,0,1,2.449.2c.7.139,1.285.263,1.76.378V94.827a4.734,4.734,0,0,1-1.338,3.756A6.044,6.044,0,0,1,21.9,99.75a10.851,10.851,0,0,1-2-.174,11.328,11.328,0,0,1-1.63-.408l.367-1.749a8.9,8.9,0,0,0,1.479.419,8.72,8.72,0,0,0,1.824.185,3.8,3.8,0,0,0,2.579-.713,2.916,2.916,0,0,0,.788-2.266v-.475Zm-.02-8.331a6.275,6.275,0,0,0-.812-.163A9.631,9.631,0,0,0,23.11,86a3.054,3.054,0,0,0-2.493,1.056,4.262,4.262,0,0,0-.874,2.806,4.962,4.962,0,0,0,.247,1.663,3.3,3.3,0,0,0,.671,1.142,2.6,2.6,0,0,0,.969.669,3.118,3.118,0,0,0,1.133.216,4.535,4.535,0,0,0,1.468-.227,3.654,3.654,0,0,0,1.058-.528v-6.56Z" transform="translate(8.411 -79.805)"/><path class="a" d="M26.185,84.442a1.281,1.281,0,0,1-.916-.356,1.408,1.408,0,0,1,0-1.921,1.362,1.362,0,0,1,1.833,0,1.408,1.408,0,0,1,0,1.921A1.292,1.292,0,0,1,26.185,84.442ZM27.2,97.693H25.191V86.471H27.2Z" transform="translate(14.407 -81.81)"/><path class="a" d="M27.94,90.121a7.164,7.164,0,0,1,.431-2.6,5.4,5.4,0,0,1,1.144-1.846,4.678,4.678,0,0,1,1.639-1.1,5.114,5.114,0,0,1,1.9-.367,4.323,4.323,0,0,1,3.475,1.415,6.5,6.5,0,0,1,1.21,4.3v.334a3.347,3.347,0,0,1-.022.377H30.033a4.1,4.1,0,0,0,1.014,2.656,3.714,3.714,0,0,0,2.764.908,7.345,7.345,0,0,0,1.78-.185,6.332,6.332,0,0,0,1.091-.356l.281,1.683a5.864,5.864,0,0,1-1.285.411,9.218,9.218,0,0,1-2.084.216,6.623,6.623,0,0,1-2.537-.442A4.729,4.729,0,0,1,29.3,94.306a5,5,0,0,1-1.027-1.844A7.87,7.87,0,0,1,27.94,90.121Zm7.706-1.1a3.374,3.374,0,0,0-.68-2.234,2.349,2.349,0,0,0-1.934-.874,2.625,2.625,0,0,0-1.217.271,2.806,2.806,0,0,0-.9.7,3.2,3.2,0,0,0-.572.991,4.941,4.941,0,0,0-.269,1.142h5.567Z" transform="translate(16.931 -79.827)"/><path class="a" d="M35.11,84.79q.691-.173,1.835-.367a15.858,15.858,0,0,1,2.634-.192,5.7,5.7,0,0,1,2.224.376,3.49,3.49,0,0,1,1.413,1.058,4.084,4.084,0,0,1,.746,1.629,9.554,9.554,0,0,1,.216,2.095v6.3H42.171V89.818a9.578,9.578,0,0,0-.141-1.767,2.994,2.994,0,0,0-.464-1.186,1.823,1.823,0,0,0-.865-.66,3.794,3.794,0,0,0-1.338-.2c-.217,0-.439.007-.669.02s-.45.033-.658.055-.4.046-.561.075-.285.051-.355.066v9.473H35.11Z" transform="translate(22.866 -79.806)"/><path class="a" d="M41.8,90.121a7.125,7.125,0,0,1,.431-2.6,5.422,5.422,0,0,1,1.142-1.846,4.677,4.677,0,0,1,1.64-1.1,5.129,5.129,0,0,1,1.9-.367,4.327,4.327,0,0,1,3.476,1.415,6.5,6.5,0,0,1,1.208,4.3v.334a3.37,3.37,0,0,1-.02.377H43.9a4.08,4.08,0,0,0,1.014,2.656,3.708,3.708,0,0,0,2.764.908,7.355,7.355,0,0,0,1.78-.185,6.387,6.387,0,0,0,1.091-.356l.28,1.683a5.9,5.9,0,0,1-1.285.411,9.223,9.223,0,0,1-2.084.216,6.637,6.637,0,0,1-2.537-.442,4.744,4.744,0,0,1-1.758-1.221,4.972,4.972,0,0,1-1.025-1.844A7.812,7.812,0,0,1,41.8,90.121Zm7.706-1.1a3.375,3.375,0,0,0-.682-2.234,2.348,2.348,0,0,0-1.932-.874,2.638,2.638,0,0,0-1.219.271,2.826,2.826,0,0,0-.9.7,3.163,3.163,0,0,0-.57.991,4.759,4.759,0,0,0-.269,1.142H49.51Z" transform="translate(28.407 -79.827)"/><path class="a" d="M55.541,95.942q3.279,0,3.279-2.244a2.247,2.247,0,0,0-.291-1.179,2.78,2.78,0,0,0-.79-.841,5.515,5.515,0,0,0-1.133-.614c-.422-.174-.874-.345-1.349-.519a13.663,13.663,0,0,1-1.554-.636,5.37,5.37,0,0,1-1.274-.841,3.547,3.547,0,0,1-.854-1.155,3.794,3.794,0,0,1-.313-1.618A3.75,3.75,0,0,1,52.6,83.23a5.646,5.646,0,0,1,3.69-1.1,9.622,9.622,0,0,1,2.473.294,5.564,5.564,0,0,1,1.629.636l-.667,1.7a5.906,5.906,0,0,0-1.349-.55,7.212,7.212,0,0,0-2.084-.271,4.541,4.541,0,0,0-1.122.132,2.88,2.88,0,0,0-.9.387,1.956,1.956,0,0,0-.618.66,1.879,1.879,0,0,0-.227.938,1.984,1.984,0,0,0,.238,1.014,2.338,2.338,0,0,0,.669.724,5.649,5.649,0,0,0,1,.572c.38.174.8.344,1.263.517.647.26,1.243.521,1.78.779a5.872,5.872,0,0,1,1.4.929,3.7,3.7,0,0,1,.918,1.285,4.5,4.5,0,0,1,.325,1.8A3.531,3.531,0,0,1,59.586,96.7a6.734,6.734,0,0,1-4.047,1.056,10.5,10.5,0,0,1-1.632-.119,12.085,12.085,0,0,1-1.327-.281,7.837,7.837,0,0,1-1-.344c-.281-.122-.5-.228-.658-.313l.627-1.729a9.376,9.376,0,0,0,1.51.627A7.845,7.845,0,0,0,55.541,95.942Z" transform="translate(35.952 -81.547)"/><path class="a" d="M57.813,90.121a7.125,7.125,0,0,1,.431-2.6,5.422,5.422,0,0,1,1.142-1.846,4.676,4.676,0,0,1,1.641-1.1,5.115,5.115,0,0,1,1.9-.367A4.323,4.323,0,0,1,66.4,85.621a6.5,6.5,0,0,1,1.21,4.3v.334a3.353,3.353,0,0,1-.022.377H59.906a4.089,4.089,0,0,0,1.014,2.656,3.708,3.708,0,0,0,2.764.908,7.356,7.356,0,0,0,1.78-.185,6.332,6.332,0,0,0,1.091-.356l.28,1.683a5.875,5.875,0,0,1-1.283.411,9.218,9.218,0,0,1-2.084.216,6.63,6.63,0,0,1-2.537-.442,4.744,4.744,0,0,1-1.758-1.221,4.972,4.972,0,0,1-1.025-1.844A7.81,7.81,0,0,1,57.813,90.121Zm7.706-1.1a3.374,3.374,0,0,0-.68-2.234,2.349,2.349,0,0,0-1.934-.874,2.638,2.638,0,0,0-1.219.271,2.8,2.8,0,0,0-.894.7,3.132,3.132,0,0,0-.572.991,4.945,4.945,0,0,0-.271,1.142h5.569Z" transform="translate(41.658 -79.827)"/><path class="a" d="M69.129,84.23a5.564,5.564,0,0,1,.592.033c.223.02.444.049.658.086s.415.073.592.108.313.068.4.1L71.026,86.3a6.908,6.908,0,0,0-.788-.206,6.837,6.837,0,0,0-1.415-.117,5.286,5.286,0,0,0-1.111.117c-.367.079-.609.135-.722.163V95.69H64.982V84.943a13.52,13.52,0,0,1,1.771-.486A11.367,11.367,0,0,1,69.129,84.23Z" transform="translate(47.592 -79.807)"/><path class="a" d="M79.6,84.36A57.338,57.338,0,0,1,77.625,90.4Q76.49,93.3,75.434,95.582H73.621Q72.562,93.3,71.431,90.4a56.515,56.515,0,0,1-1.974-6.044h2.157q.258,1.055.616,2.255t.755,2.374c.267.784.536,1.541.808,2.276s.534,1.387.777,1.965c.245-.576.5-1.228.779-1.965s.543-1.491.808-2.276.519-1.577.757-2.374.442-1.552.614-2.255Z" transform="translate(51.297 -79.699)"/><path class="a" d="M77.562,84.442a1.288,1.288,0,0,1-.918-.356,1.408,1.408,0,0,1,0-1.921,1.364,1.364,0,0,1,1.835,0,1.413,1.413,0,0,1,0,1.921A1.3,1.3,0,0,1,77.562,84.442Zm1.014,13.251H76.568V86.471h2.009Z" transform="translate(56.933 -81.81)"/><path class="a" d="M84.813,95.968a6.16,6.16,0,0,1-2.385-.43,4.826,4.826,0,0,1-1.727-1.21,5.052,5.052,0,0,1-1.045-1.844,7.665,7.665,0,0,1-.344-2.363,7.14,7.14,0,0,1,.377-2.374,5.621,5.621,0,0,1,1.069-1.868,4.756,4.756,0,0,1,1.692-1.228,5.5,5.5,0,0,1,2.233-.444,9.019,9.019,0,0,1,1.513.13,7.1,7.1,0,0,1,1.446.411l-.451,1.7a4.809,4.809,0,0,0-1.049-.344,5.921,5.921,0,0,0-1.261-.13A3.2,3.2,0,0,0,82.3,87.036a4.664,4.664,0,0,0-.9,3.085,6.327,6.327,0,0,0,.207,1.663,3.383,3.383,0,0,0,.647,1.294,2.878,2.878,0,0,0,1.131.83,4.312,4.312,0,0,0,1.683.292,6.385,6.385,0,0,0,1.446-.152,5.19,5.19,0,0,0,1.016-.324l.281,1.683a2.1,2.1,0,0,1-.5.207,6.839,6.839,0,0,1-.733.172c-.272.049-.565.093-.874.13S85.1,95.968,84.813,95.968Z" transform="translate(59.453 -79.826)"/><path class="a" d="M84.983,90.121a7.125,7.125,0,0,1,.431-2.6,5.4,5.4,0,0,1,1.144-1.846,4.652,4.652,0,0,1,1.641-1.1,5.114,5.114,0,0,1,1.9-.367,4.323,4.323,0,0,1,3.475,1.415,6.5,6.5,0,0,1,1.21,4.3v.334a2.956,2.956,0,0,1-.022.377H87.078a4.089,4.089,0,0,0,1.014,2.656,3.708,3.708,0,0,0,2.764.908,7.355,7.355,0,0,0,1.78-.185,6.333,6.333,0,0,0,1.091-.356l.28,1.683a5.9,5.9,0,0,1-1.285.411,9.219,9.219,0,0,1-2.084.216,6.636,6.636,0,0,1-2.537-.442,4.744,4.744,0,0,1-1.758-1.221,4.971,4.971,0,0,1-1.025-1.844A7.809,7.809,0,0,1,84.983,90.121Zm7.706-1.1a3.374,3.374,0,0,0-.68-2.234,2.351,2.351,0,0,0-1.934-.874,2.638,2.638,0,0,0-1.219.271,2.806,2.806,0,0,0-.9.7,3.133,3.133,0,0,0-.572.991,4.849,4.849,0,0,0-.269,1.142h5.569Z" transform="translate(64.148 -79.827)"/><path class="a" d="M95.155,94.263a3.98,3.98,0,0,0,1.822-.322,1.1,1.1,0,0,0,.594-1.036,1.375,1.375,0,0,0-.583-1.166,9.225,9.225,0,0,0-1.921-.972c-.431-.174-.846-.349-1.241-.53A4.332,4.332,0,0,1,92.8,89.6a2.747,2.747,0,0,1-.691-.883,3.146,3.146,0,0,1,.843-3.637,4.7,4.7,0,0,1,3-.874,8.286,8.286,0,0,1,.95.055c.316.037.611.079.885.13s.514.1.724.161.369.11.486.152l-.369,1.725a5.207,5.207,0,0,0-1.014-.355,6.537,6.537,0,0,0-1.663-.185,3.048,3.048,0,0,0-1.468.336,1.111,1.111,0,0,0-.627,1.047,1.434,1.434,0,0,0,.143.647,1.5,1.5,0,0,0,.431.506,3.421,3.421,0,0,0,.724.42c.285.13.632.267,1.035.411.532.2,1.007.4,1.424.592a4.38,4.38,0,0,1,1.069.682,2.6,2.6,0,0,1,.68.938,3.419,3.419,0,0,1,.238,1.349,2.679,2.679,0,0,1-1.153,2.352,5.748,5.748,0,0,1-3.292.8,8.578,8.578,0,0,1-2.332-.249,11.343,11.343,0,0,1-1.142-.378l.366-1.725c.23.088.6.216,1.1.387A6.364,6.364,0,0,0,95.155,94.263Z" transform="translate(69.689 -79.826)"/></g><g transform="translate(0 92.206)"><path class="b" d="M19.065,94.931a20.721,20.721,0,0,1-7.777-1.4,16.5,16.5,0,0,1-6.022-4.094,18.42,18.42,0,0,1-3.889-6.638A27.348,27.348,0,0,1,0,73.762a24.594,24.594,0,0,1,1.55-9.035,19.591,19.591,0,0,1,4.182-6.638A17.714,17.714,0,0,1,11.873,54a19.965,19.965,0,0,1,7.485-1.406,26.579,26.579,0,0,1,4.531.351,27.987,27.987,0,0,1,3.509.819,16.925,16.925,0,0,1,2.427.936,14.121,14.121,0,0,1,1.287.7l-1.638,4.677a9.364,9.364,0,0,0-1.521-.76q-1-.408-2.252-.819a20.518,20.518,0,0,0-2.749-.673,17.272,17.272,0,0,0-3.01-.263,14.476,14.476,0,0,0-5.79,1.111,11.992,11.992,0,0,0-4.387,3.217A14.55,14.55,0,0,0,6.987,67a22.07,22.07,0,0,0-.963,6.753,24.136,24.136,0,0,0,.846,6.607,14.476,14.476,0,0,0,2.544,5.118,11.432,11.432,0,0,0,4.24,3.3,14.073,14.073,0,0,0,5.937,1.168,21.742,21.742,0,0,0,6.49-.817,28.341,28.341,0,0,0,3.86-1.462L31.4,92.353a8.141,8.141,0,0,1-1.462.731,19.7,19.7,0,0,1-2.632.848,33.56,33.56,0,0,1-3.685.7A32.551,32.551,0,0,1,19.065,94.931Z" transform="translate(0 -48.674)"/><path class="b" d="M18.912,95.827V51.384l5.439-.936V66A18.4,18.4,0,0,1,27.6,65.1a18.678,18.678,0,0,1,3.422-.322A15.386,15.386,0,0,1,37.04,65.8a9.43,9.43,0,0,1,3.831,2.864,11.139,11.139,0,0,1,2.018,4.416,25.66,25.66,0,0,1,.583,5.673V95.827H38.032V79.92a25.922,25.922,0,0,0-.38-4.8,8.1,8.1,0,0,0-1.257-3.215,5,5,0,0,0-2.34-1.786,10.267,10.267,0,0,0-3.624-.556,14.535,14.535,0,0,0-1.815.119c-.623.077-1.219.166-1.784.261s-1.073.2-1.521.324a8.789,8.789,0,0,0-.963.292V95.827Z" transform="translate(15.654 -50.448)"/><path class="b" d="M34.625,74.246A19.387,19.387,0,0,1,35.793,67.2a14.758,14.758,0,0,1,3.1-5,12.562,12.562,0,0,1,4.445-2.981,13.869,13.869,0,0,1,5.145-.994q6.141,0,9.417,3.829t3.275,11.668v.907a8.387,8.387,0,0,1-.058,1.024H40.3q.348,4.737,2.749,7.194T50.532,85.3a19.993,19.993,0,0,0,4.825-.5,17.312,17.312,0,0,0,2.952-.965l.76,4.562a16.033,16.033,0,0,1-3.48,1.111,24.748,24.748,0,0,1-5.642.585,17.9,17.9,0,0,1-6.871-1.2,12.8,12.8,0,0,1-4.765-3.3,13.5,13.5,0,0,1-2.778-5A21.09,21.09,0,0,1,34.625,74.246ZM55.5,71.263a9.132,9.132,0,0,0-1.842-6.053,6.348,6.348,0,0,0-5.235-2.369,7.165,7.165,0,0,0-3.3.731,7.79,7.79,0,0,0-2.425,1.9,8.7,8.7,0,0,0-1.55,2.689,13.252,13.252,0,0,0-.731,3.1Z" transform="translate(28.661 -44.012)"/><path class="b" d="M59.794,85.473a10.708,10.708,0,0,0,4.942-.877,2.968,2.968,0,0,0,1.608-2.806,3.727,3.727,0,0,0-1.579-3.158A25.1,25.1,0,0,0,59.56,76Q57.8,75.3,56.2,74.567a11.782,11.782,0,0,1-2.776-1.725,7.483,7.483,0,0,1-1.872-2.4,7.652,7.652,0,0,1-.7-3.451,7.745,7.745,0,0,1,2.981-6.4q2.983-2.366,8.128-2.367a22.94,22.94,0,0,1,2.573.146q1.286.148,2.4.351c.74.137,1.393.285,1.959.439s1,.292,1.316.409l-.994,4.679a13.732,13.732,0,0,0-2.749-.963,17.675,17.675,0,0,0-4.5-.5,8.32,8.32,0,0,0-3.975.907,3.006,3.006,0,0,0-1.7,2.837,3.849,3.849,0,0,0,.38,1.753,4.049,4.049,0,0,0,1.172,1.375A9.585,9.585,0,0,0,59.8,70.8q1.171.526,2.807,1.109,2.163.82,3.858,1.608a12.1,12.1,0,0,1,2.9,1.842A7.1,7.1,0,0,1,71.2,77.9a9.237,9.237,0,0,1,.643,3.655,7.251,7.251,0,0,1-3.129,6.373Q65.585,90.094,59.8,90.1a23.335,23.335,0,0,1-6.317-.673,32.215,32.215,0,0,1-3.1-1.025l.994-4.677q.935.351,2.983,1.053A17.2,17.2,0,0,0,59.794,85.473Z" transform="translate(41.701 -44.012)"/><path class="b" d="M64.226,95.827V51.384l5.439-.936V66A18.4,18.4,0,0,1,72.91,65.1a18.679,18.679,0,0,1,3.422-.322A15.385,15.385,0,0,1,82.354,65.8a9.43,9.43,0,0,1,3.831,2.864A11.139,11.139,0,0,1,88.2,73.077a25.66,25.66,0,0,1,.583,5.673V95.827H83.346V79.92a25.921,25.921,0,0,0-.38-4.8,8.1,8.1,0,0,0-1.257-3.215,5,5,0,0,0-2.339-1.786,10.268,10.268,0,0,0-3.624-.556,14.557,14.557,0,0,0-1.815.119c-.623.077-1.219.166-1.784.261s-1.073.2-1.521.324a8.783,8.783,0,0,0-.963.292V95.827Z" transform="translate(53.163 -50.448)"/><path class="b" d="M83.831,58.862a3.488,3.488,0,0,1-2.486-.965,3.819,3.819,0,0,1,0-5.2,3.684,3.684,0,0,1,4.971,0,3.819,3.819,0,0,1,0,5.2A3.483,3.483,0,0,1,83.831,58.862ZM86.58,94.768H81.141V64.359H86.58V94.768Z" transform="translate(66.486 -49.389)"/><path class="b" d="M98.329,58.288c.468,0,1,.027,1.608.086s1.2.137,1.786.234,1.12.194,1.607.292a10.5,10.5,0,0,1,1.082.263l-.936,4.737a18.314,18.314,0,0,0-2.133-.556,18.771,18.771,0,0,0-3.831-.322,14.27,14.27,0,0,0-3.012.322q-1.491.324-1.958.439V89.338H87.1V60.216A37.3,37.3,0,0,1,91.9,58.9,30.782,30.782,0,0,1,98.329,58.288Z" transform="translate(72.099 -43.959)"/><path class="b" d="M96.617,74.246a19.385,19.385,0,0,1,1.17-7.046,14.755,14.755,0,0,1,3.1-5,12.562,12.562,0,0,1,4.445-2.981,13.869,13.869,0,0,1,5.145-.994q6.141,0,9.415,3.829t3.275,11.668v.907a8.378,8.378,0,0,1-.059,1.024H102.288q.348,4.737,2.749,7.194t7.485,2.455a20,20,0,0,0,4.825-.5,17.311,17.311,0,0,0,2.952-.965l.76,4.562a16.069,16.069,0,0,1-3.48,1.111,24.748,24.748,0,0,1-5.642.585,17.9,17.9,0,0,1-6.87-1.2,12.789,12.789,0,0,1-4.767-3.3,13.5,13.5,0,0,1-2.778-5A21.208,21.208,0,0,1,96.617,74.246ZM117.5,71.263a9.143,9.143,0,0,0-1.844-6.053,6.348,6.348,0,0,0-5.235-2.369,7.165,7.165,0,0,0-3.3.731,7.79,7.79,0,0,0-2.425,1.9,8.744,8.744,0,0,0-1.552,2.689,13.251,13.251,0,0,0-.731,3.1Z" transform="translate(79.974 -44.012)"/><path class="b" d="M137.98,94.93a20.728,20.728,0,0,1-7.777-1.4,16.556,16.556,0,0,1-6.024-4.094,18.39,18.39,0,0,1-3.888-6.638,27.364,27.364,0,0,1-1.374-9.033,24.557,24.557,0,0,1,1.55-9.035,19.587,19.587,0,0,1,4.18-6.638A17.732,17.732,0,0,1,130.788,54a19.959,19.959,0,0,1,7.485-1.406,26.6,26.6,0,0,1,4.533.351,27.954,27.954,0,0,1,3.507.819,16.839,16.839,0,0,1,2.427.936,14.377,14.377,0,0,1,1.287.7l-1.638,4.677a9.363,9.363,0,0,0-1.521-.76q-.992-.408-2.25-.819a20.655,20.655,0,0,0-2.749-.673,17.287,17.287,0,0,0-3.01-.263,14.475,14.475,0,0,0-5.79,1.111,11.971,11.971,0,0,0-4.385,3.217A14.583,14.583,0,0,0,125.9,67a22.07,22.07,0,0,0-.963,6.753,23.994,23.994,0,0,0,.85,6.607,14.473,14.473,0,0,0,2.542,5.118,11.446,11.446,0,0,0,4.24,3.3,14.066,14.066,0,0,0,5.937,1.168,21.75,21.75,0,0,0,6.49-.817,28.2,28.2,0,0,0,3.858-1.462l1.464,4.677a8.24,8.24,0,0,1-1.464.731,19.669,19.669,0,0,1-2.63.848,33.563,33.563,0,0,1-3.685.7A32.6,32.6,0,0,1,137.98,94.93Z" transform="translate(98.433 -48.674)"/><path class="b" d="M165.083,74.187a19.212,19.212,0,0,1-1.053,6.549,15.051,15.051,0,0,1-2.954,5.03,12.992,12.992,0,0,1-4.531,3.244,14.973,14.973,0,0,1-11.464,0,12.982,12.982,0,0,1-4.531-3.244,15.021,15.021,0,0,1-2.954-5.03,20.838,20.838,0,0,1,0-13.068,14.944,14.944,0,0,1,2.954-5.059,12.975,12.975,0,0,1,4.531-3.244,14.973,14.973,0,0,1,11.464,0,13.032,13.032,0,0,1,4.531,3.244,14.992,14.992,0,0,1,2.954,5.059A19.3,19.3,0,0,1,165.083,74.187Zm-5.671,0A13.075,13.075,0,0,0,157.1,66.03a8.065,8.065,0,0,0-12.571,0q-2.311,3.01-2.31,8.157t2.31,8.157a8.064,8.064,0,0,0,12.571,0A13.079,13.079,0,0,0,159.411,74.187Z" transform="translate(113.025 -44.012)"/><path class="b" d="M179,88.17q-1.875.469-4.939.992a42.5,42.5,0,0,1-7.108.526,15.078,15.078,0,0,1-5.905-1.024,9.525,9.525,0,0,1-3.858-2.893,11.735,11.735,0,0,1-2.1-4.416,22.985,22.985,0,0,1-.645-5.642V58.639h5.441v15.9q0,5.557,1.753,7.954t5.907,2.4c.583,0,1.184-.018,1.809-.058s1.208-.088,1.757-.146,1.044-.119,1.491-.175a4.368,4.368,0,0,0,.963-.2V58.639H179Z" transform="translate(127.834 -43.668)"/><path class="b" d="M171.23,59.807q1.87-.466,4.973-.992a42.956,42.956,0,0,1,7.132-.526,15.4,15.4,0,0,1,6.024,1.024,9.473,9.473,0,0,1,3.833,2.864,11.111,11.111,0,0,1,2.016,4.416,25.661,25.661,0,0,1,.583,5.673V89.341h-5.439V73.434a25.924,25.924,0,0,0-.38-4.8,8.1,8.1,0,0,0-1.256-3.215,5.016,5.016,0,0,0-2.34-1.786,10.266,10.266,0,0,0-3.624-.556c-.583,0-1.19.022-1.815.058s-1.217.09-1.782.146-1.073.126-1.521.2-.773.137-.967.175V89.339H171.23V59.807Z" transform="translate(141.735 -43.959)"/><path class="b" d="M193.122,62.9h11.522v4.562H193.122V81.5a16.632,16.632,0,0,0,.355,3.772,5.649,5.649,0,0,0,1.047,2.339,3.8,3.8,0,0,0,1.758,1.2,7.825,7.825,0,0,0,2.455.351,11.565,11.565,0,0,0,3.946-.556q1.494-.557,2.076-.791l1.055,4.5a20.434,20.434,0,0,1-2.864,1.025,16.313,16.313,0,0,1-4.681.612,14.181,14.181,0,0,1-5.118-.79,7.468,7.468,0,0,1-3.244-2.367,9.482,9.482,0,0,1-1.724-3.889,25.8,25.8,0,0,1-.5-5.352V54.424l5.438-.936V62.9Z" transform="translate(155.356 -47.932)"/><path class="b" d="M198.333,94.72a10.483,10.483,0,0,0,1.669.556,8.029,8.029,0,0,0,2.016.265,7.909,7.909,0,0,0,5.028-1.435,12.362,12.362,0,0,0,3.275-4.648q-3.685-7.019-6.87-14.883a128.852,128.852,0,0,1-5.293-15.934H204q.644,2.629,1.552,5.673t2.016,6.256q1.113,3.216,2.4,6.434t2.692,6.2q2.226-6.141,3.858-12.164t3.1-12.4h5.611q-2.106,8.6-4.675,16.521T215,89.984a31.005,31.005,0,0,1-2.425,4.531,13.733,13.733,0,0,1-2.78,3.129,10.15,10.15,0,0,1-3.418,1.813,14.627,14.627,0,0,1-4.3.585,10.8,10.8,0,0,1-1.343-.088c-.472-.059-.928-.137-1.376-.232s-.859-.2-1.23-.323a5.811,5.811,0,0,1-.79-.292Z" transform="translate(163.345 -43.667)"/></g><path class="a" d="M248.29,25.3a1.028,1.028,0,0,0-.04-.188c-.108-.124.146-.005-.389-.627l.011-.009a.961.961,0,0,0-.1-.091,1.014,1.014,0,0,0-.411-.239,1.33,1.33,0,0,0-.576-.115l-.1.013a1.358,1.358,0,0,0-.25.037,6.382,6.382,0,0,0-1.117.367A218.885,218.885,0,0,1,208.9,35a212.743,212.743,0,0,1-13.569-23.212c-1.665-3.314-2.932-6.03-3.791-7.929-.433-.947-.764-1.683-1-2.2-.117-.263-.214-.462-.294-.629A1.448,1.448,0,0,0,190.1.769a1.035,1.035,0,0,0-.154-.219c-.152-.06-.1-.4-1.15-.55-1.1.146-1.044.488-1.19.55a6.385,6.385,0,0,0-.678,1.281A218.53,218.53,0,0,1,168.657,35,213.985,213.985,0,0,1,142.9,28.257c-3.517-1.159-6.342-2.191-8.329-2.93-.992-.373-1.775-.673-2.336-.879a5.6,5.6,0,0,0-1.192-.38l0,0a2.03,2.03,0,0,0-.252-.027l-.031,0a1.166,1.166,0,0,0-.554.1c-.049.02-.1.04-.154.066a1.86,1.86,0,0,0-.367.271,1.073,1.073,0,0,0-.274.366,1.325,1.325,0,0,0-.172.616c-.005.1,0,.1-.005.1a4.861,4.861,0,0,0,.417,1.471,217.133,217.133,0,0,1,11,38.763c2.765,11.166,7.508,21.306,17.225,25.643a24.933,24.933,0,0,0,10.652,2.277,29.847,29.847,0,0,0,20.25-8.086,29.786,29.786,0,0,0,20.239,8.084,25.02,25.02,0,0,0,10.692-2.288c9.676-4.317,14.425-14.465,17.17-25.533A210.581,210.581,0,0,1,244.091,37.7c1.159-3.517,2.182-6.342,2.932-8.327.364-.994.662-1.777.877-2.345a8.19,8.19,0,0,0,.358-1.077,1.381,1.381,0,0,0,.053-.389v-.015A.942.942,0,0,0,248.29,25.3ZM207.743,38.677c4.116,6.827,6.964,13.777,6.951,20.239a20.007,20.007,0,0,1-1.327,7.282c-2.615,7.481-10.753,14.479-21.026,15.671a29.834,29.834,0,0,0,6.578-18.541,24.9,24.9,0,0,0-2.3-10.7,23.159,23.159,0,0,0-5.458-7.49c4.33-3.067,9.839-5.211,15.934-6.722v0c.141-.027.276-.055.419-.08C207.59,38.454,207.666,38.563,207.743,38.677Zm-37.706-.338.358.068c6.13,1.515,11.665,3.663,16.006,6.739a23.346,23.346,0,0,0-5.489,7.528,24.879,24.879,0,0,0-2.279,10.654,29.8,29.8,0,0,0,6.589,18.544c-10.283-1.19-18.418-8.185-21.021-15.629a20.053,20.053,0,0,1-1.343-7.318c-.013-6.487,2.851-13.463,6.995-20.31C169.916,38.52,169.973,38.43,170.037,38.339ZM193.88,53.894a21.915,21.915,0,0,1,2.02,9.435,26.846,26.846,0,0,1-7.123,18.025,26.816,26.816,0,0,1-7.128-18.029,22.018,22.018,0,0,1,2-9.391,20.245,20.245,0,0,1,5.13-6.887A20.1,20.1,0,0,1,193.88,53.894ZM188.76,5.109a.365.365,0,0,0,.018-.038,219.975,219.975,0,0,0,16.929,30.6c-6.287,1.621-12.215,3.933-16.925,7.452-4.706-3.515-10.641-5.827-16.943-7.45a216.136,216.136,0,0,0,13.076-22.532C186.605,9.786,187.886,7.026,188.76,5.109ZM159.142,88.7c-8.364-3.67-12.875-12.748-15.538-23.53a212.538,212.538,0,0,0-7.273-28.409c-1.179-3.564-2.224-6.434-2.974-8.442-.033-.086-.062-.172-.093-.254a219.5,219.5,0,0,0,33.612,9.672c-4.085,6.927-7.029,14.077-7.041,21.189a23.049,23.049,0,0,0,1.532,8.362c3.08,8.643,12.162,16.316,23.678,17.592a26.808,26.808,0,0,1-16.516,5.818A21.966,21.966,0,0,1,159.142,88.7Zm74.789-23.443c-2.636,10.69-7.157,19.769-15.477,23.419a22.029,22.029,0,0,1-9.433,2.021A26.792,26.792,0,0,1,192.5,84.873c11.515-1.27,20.608-8.943,23.7-17.629a23.137,23.137,0,0,0,1.512-8.331c-.013-7.141-2.974-14.306-7.037-21.187a217.091,217.091,0,0,0,24.916-6.605c3.566-1.177,6.436-2.223,8.44-2.972l.262-.1A217.222,217.222,0,0,0,233.931,65.254Z" transform="translate(106.974)"/></g></svg>