<svg xmlns="http://www.w3.org/2000/svg" width="16.25" height="20" viewBox="0 0 16.25 20"><defs><style>.a{fill:#e27866;}</style></defs><path class="a" d="M56.4,0C50.919,0,48,3.513,48,7.343c0,1.776.993,3.991,2.581,4.694.241.109.373.063.426-.161.048-.17.256-.989.358-1.375a.354.354,0,0,0-.085-.348,4.555,4.555,0,0,1-.946-2.764,5.388,5.388,0,0,1,5.738-5.265c3.125,0,5.311,2.03,5.311,4.934,0,3.281-1.736,5.552-3.993,5.552a1.788,1.788,0,0,1-1.884-2.193,23.766,23.766,0,0,0,1.055-4.038,1.551,1.551,0,0,0-1.605-1.706c-1.271,0-2.3,1.259-2.3,2.949a4.2,4.2,0,0,0,.38,1.8s-1.258,5.08-1.491,6.029a13.491,13.491,0,0,0,.093,4.431.132.132,0,0,0,.24.061,15.75,15.75,0,0,0,2.07-3.9c.155-.571.791-2.888.791-2.888a3.456,3.456,0,0,0,2.915,1.39c3.83,0,6.6-3.366,6.6-7.544C64.24,3,60.812,0,56.4,0Z" transform="translate(-48.004)"/></svg>